<mxfile host="drawio-plugin" modified="2023-10-20T08:14:59.502Z" agent="5.0 (Windows NT 10.0; Win64; x64) AppleWebKit/537.36 (KHTML, like Gecko) Chrome/111.0.0.0 Safari/537.36" etag="jOBz2Z_OaVdQ8xwZr3Fn" version="20.5.3" type="embed"><diagram id="woZmq--j6TU2j0kvm82t" name="Seite-1"><mxGraphModel dx="684" dy="179" grid="1" gridSize="10" guides="1" tooltips="1" connect="1" arrows="1" fold="1" page="0" pageScale="1" pageWidth="827" pageHeight="1169" background="none" math="0" shadow="0"><root><mxCell id="0"/><mxCell id="1" parent="0"/><mxCell id="node4" value="&lt;p style=&quot;margin:0px;margin-top:4px;text-align:center;&quot;&gt;&lt;b&gt;Deployment&lt;/b&gt;&lt;/p&gt;&lt;hr size=&quot;1&quot;/&gt;&lt;p style=&quot;margin:0 0 0 4px;line-height:1.6;&quot;&gt; deployed_by_id: integer&lt;br/&gt; deployed_at: timestamp&lt;br/&gt; name: varchar(50)&lt;/p&gt;&lt;hr size=&quot;1&quot;/&gt;&lt;p style=&quot;margin:0 0 0 4px;line-height:1.6;&quot;&gt; id: integer&lt;/p&gt;" style="verticalAlign=top;align=left;overflow=fill;fontSize=14;fontFamily=Helvetica;html=1;rounded=0;shadow=0;comic=0;labelBackgroundColor=none;strokeWidth=1;fillColor=#bac8d3;strokeColor=#23445d;" parent="1" vertex="1"><mxGeometry x="299" y="190" width="160" height="150" as="geometry"/></mxCell><mxCell id="node3" value="&lt;p style=&quot;margin:0px;margin-top:4px;text-align:center;&quot;&gt;&lt;b&gt;Device&lt;/b&gt;&lt;/p&gt;&lt;hr size=&quot;1&quot;/&gt;&lt;p style=&quot;margin:0 0 0 4px;line-height:1.6;&quot;&gt; provider_id: integer&lt;br/&gt; num_qubits: integer&lt;br/&gt; device_name: varchar&lt;br/&gt; is_simulator: boolean&lt;br/&gt; url: varchar(50)&lt;/p&gt;&lt;hr size=&quot;1&quot;/&gt;&lt;p style=&quot;margin:0 0 0 4px;line-height:1.6;&quot;&gt; id: integer&lt;/p&gt;" style="verticalAlign=top;align=left;overflow=fill;fontSize=14;fontFamily=Helvetica;html=1;rounded=0;shadow=0;comic=0;labelBackgroundColor=none;strokeWidth=1;fillColor=#bac8d3;strokeColor=#23445d;" parent="1" vertex="1"><mxGeometry x="-196" y="273" width="148" height="187" as="geometry"/></mxCell><mxCell id="node1" value="&lt;p style=&quot;margin:0px;margin-top:4px;text-align:center;&quot;&gt;&lt;b&gt;Job&lt;/b&gt;&lt;/p&gt;&lt;hr size=&quot;1&quot;/&gt;&lt;p style=&quot;margin:0 0 0 4px;line-height:1.6;&quot;&gt; executed_by_id: integer&lt;br/&gt; executed_on_id: integer&lt;br/&gt; deployment_id: integer&lt;br/&gt; progress: integer&lt;br/&gt; state: varchar(8)&lt;br/&gt; shots: integer&lt;br/&gt; type: varchar(10)&lt;br/&gt; started_at: timestamp&lt;br/&gt; finished_at: timestamp&lt;br/&gt; name: varchar(50)&lt;br/&gt; data: varchar(50)&lt;br/&gt; parameters: varchar(50)&lt;/p&gt;&lt;hr size=&quot;1&quot;/&gt;&lt;p style=&quot;margin:0 0 0 4px;line-height:1.6;&quot;&gt; id: integer&lt;/p&gt;" style="verticalAlign=top;align=left;overflow=fill;fontSize=14;fontFamily=Helvetica;html=1;rounded=0;shadow=0;comic=0;labelBackgroundColor=none;strokeWidth=1;fillColor=#bac8d3;strokeColor=#23445d;" parent="1" vertex="1"><mxGeometry x="13" y="230" width="160" height="350" as="geometry"/></mxCell><mxCell id="node2" value="&lt;p style=&quot;margin:0px;margin-top:4px;text-align:center;&quot;&gt;&lt;b&gt;Pilot&lt;/b&gt;&lt;/p&gt;&lt;hr size=&quot;1&quot;/&gt;&lt;p style=&quot;margin:0 0 0 4px;line-height:1.6;&quot;&gt; job_id: integer&lt;br/&gt; programming_language: varchar(6)&lt;br/&gt; state: varchar(50)&lt;/p&gt;&lt;hr size=&quot;1&quot;/&gt;&lt;p style=&quot;margin:0 0 0 4px;line-height:1.6;&quot;&gt; id: integer&lt;/p&gt;" style="verticalAlign=top;align=left;overflow=fill;fontSize=14;fontFamily=Helvetica;html=1;rounded=0;shadow=0;comic=0;labelBackgroundColor=none;strokeWidth=1;fillColor=#bac8d3;strokeColor=#23445d;" parent="1" vertex="1"><mxGeometry x="60" y="640" width="220" height="160" as="geometry"/></mxCell><mxCell id="St8xuASizieTfpTsJ0Hc-1" style="edgeStyle=orthogonalEdgeStyle;rounded=0;orthogonalLoop=1;jettySize=auto;html=1;exitX=0.5;exitY=1;exitDx=0;exitDy=0;" parent="1" edge="1"><mxGeometry relative="1" as="geometry"><mxPoint x="-121.71428571428578" y="230" as="targetPoint"/><mxPoint x="-122" y="230" as="sourcePoint"/></mxGeometry></mxCell><mxCell id="node6" value="&lt;p style=&quot;margin:0px;margin-top:4px;text-align:center;&quot;&gt;&lt;b&gt;Provider&lt;/b&gt;&lt;/p&gt;&lt;hr size=&quot;1&quot;/&gt;&lt;p style=&quot;margin:0 0 0 4px;line-height:1.6;&quot;&gt; with_token: boolean&lt;br/&gt; supported_language: varchar(6)&lt;br/&gt; name: varchar(3)&lt;/p&gt;&lt;hr size=&quot;1&quot;/&gt;&lt;p style=&quot;margin:0 0 0 4px;line-height:1.6;&quot;&gt; id: integer&lt;/p&gt;" style="verticalAlign=top;align=left;overflow=fill;fontSize=14;fontFamily=Helvetica;html=1;rounded=0;shadow=0;comic=0;labelBackgroundColor=none;strokeWidth=1;fillColor=#bac8d3;strokeColor=#23445d;" parent="1" vertex="1"><mxGeometry x="-222.5" y="80" width="201" height="150" as="geometry"/></mxCell><mxCell id="node0" value="&lt;p style=&quot;margin:0px;margin-top:4px;text-align:center;&quot;&gt;&lt;b&gt;QuantumProgram&lt;/b&gt;&lt;/p&gt;&lt;hr size=&quot;1&quot;/&gt;&lt;p style=&quot;margin:0 0 0 4px;line-height:1.6;&quot;&gt; quantum_circuit: varchar(500)&lt;br/&gt; assembler_language: varchar(6)&lt;br/&gt; deployment_id: integer&lt;br/&gt; python_file_path: varchar(500)&lt;br/&gt; python_file_metadata: varchar(500)&lt;br/&gt; python_file_options: varchar(500)&lt;br/&gt; python_file_inputs: varchar(500)&lt;/p&gt;&lt;hr size=&quot;1&quot;/&gt;&lt;p style=&quot;margin:0 0 0 4px;line-height:1.6;&quot;&gt; id: integer&lt;/p&gt;" style="verticalAlign=top;align=left;overflow=fill;fontSize=14;fontFamily=Helvetica;html=1;rounded=0;shadow=0;comic=0;labelBackgroundColor=none;strokeWidth=1;fillColor=#bac8d3;strokeColor=#23445d;" parent="1" vertex="1"><mxGeometry x="238" y="380" width="221" height="240" as="geometry"/></mxCell><mxCell id="node5" value="&lt;p style=&quot;margin:0px;margin-top:4px;text-align:center;&quot;&gt;&lt;b&gt;Result&lt;/b&gt;&lt;/p&gt;&lt;hr size=&quot;1&quot;/&gt;&lt;p style=&quot;margin:0 0 0 4px;line-height:1.6;&quot;&gt; result_dict: json&lt;br/&gt; job_id: integer&lt;br/&gt; circuit: varchar(100)&lt;br/&gt; meta_data: json&lt;br/&gt; result_type: varchar(18)&lt;/p&gt;&lt;hr size=&quot;1&quot;/&gt;&lt;p style=&quot;margin:0 0 0 4px;line-height:1.6;&quot;&gt; id: integer&lt;/p&gt;" style="verticalAlign=top;align=left;overflow=fill;fontSize=14;fontFamily=Helvetica;html=1;rounded=0;shadow=0;comic=0;labelBackgroundColor=none;strokeWidth=1;fillColor=#bac8d3;strokeColor=#23445d;" parent="1" vertex="1"><mxGeometry x="-110" y="640" width="157" height="200" as="geometry"/></mxCell><mxCell id="node7" value="&lt;p style=&quot;margin:0px;margin-top:4px;text-align:center;&quot;&gt;&lt;b&gt;User&lt;/b&gt;&lt;/p&gt;&lt;hr size=&quot;1&quot;/&gt;&lt;p style=&quot;margin:0 0 0 4px;line-height:1.6;&quot;&gt; name: varchar(50)&lt;/p&gt;&lt;hr size=&quot;1&quot;/&gt;&lt;p style=&quot;margin:0 0 0 4px;line-height:1.6;&quot;&gt; id: integer&lt;/p&gt;" style="verticalAlign=top;align=left;overflow=fill;fontSize=14;fontFamily=Helvetica;html=1;rounded=0;shadow=0;comic=0;labelBackgroundColor=none;strokeWidth=1;fillColor=#bac8d3;strokeColor=#23445d;" parent="1" vertex="1"><mxGeometry x="146.5" y="20" width="126" height="98" as="geometry"/></mxCell><mxCell id="edge0" value="" style="html=1;rounded=0;edgeStyle=orthogonalEdgeStyle;dashed=0;startArrow=none;endArrow=block;endSize=12;strokeColor=#595959;exitX=0.500;exitY=0.000;exitDx=0;exitDy=0;entryX=0.750;entryY=1.001;entryDx=0;entryDy=0;" parent="1" source="node4" target="node7" edge="1"><mxGeometry width="50" height="50" relative="1" as="geometry"><Array as="points"><mxPoint x="379" y="150"/><mxPoint x="241" y="150"/></Array></mxGeometry></mxCell><mxCell id="label2" value="deployed_by_id:id" style="edgeLabel;resizable=0;html=1;align=left;verticalAlign=top;strokeColor=default;" parent="edge0" vertex="1" connectable="0"><mxGeometry x="260" y="148" as="geometry"/></mxCell><mxCell id="edge4" value="" style="html=1;rounded=1;edgeStyle=orthogonalEdgeStyle;dashed=0;startArrow=none;endArrow=block;endSize=12;strokeColor=#595959;exitX=0.500;exitY=0.000;exitDx=0;exitDy=0;entryX=0.500;entryY=1.000;entryDx=0;entryDy=0;" parent="1" source="node3" edge="1"><mxGeometry width="50" height="50" relative="1" as="geometry"><Array as="points"/><mxPoint x="-122" y="230" as="targetPoint"/></mxGeometry></mxCell><mxCell id="label26" value="provider_id:id" style="edgeLabel;resizable=0;html=1;align=left;verticalAlign=top;strokeColor=default;" parent="edge4" vertex="1" connectable="0"><mxGeometry x="-200" y="240" as="geometry"/></mxCell><mxCell id="edge7" value="" style="html=1;rounded=1;edgeStyle=orthogonalEdgeStyle;dashed=0;startArrow=none;endArrow=block;endSize=12;strokeColor=#595959;exitX=0.995;exitY=0.1;exitDx=0;exitDy=0;entryX=0;entryY=0.5;entryDx=0;entryDy=0;exitPerimeter=0;" parent="1" source="node1" target="node4" edge="1"><mxGeometry width="50" height="50" relative="1" as="geometry"><Array as="points"><mxPoint x="210" y="265"/><mxPoint x="210" y="265"/></Array></mxGeometry></mxCell><mxCell id="label44" value="deployment_id:id" style="edgeLabel;resizable=0;html=1;align=left;verticalAlign=top;strokeColor=default;" parent="edge7" vertex="1" connectable="0"><mxGeometry x="200" y="240" as="geometry"/></mxCell><mxCell id="edge5" value="" style="html=1;rounded=0;edgeStyle=orthogonalEdgeStyle;dashed=0;startArrow=none;endArrow=block;endSize=12;strokeColor=#595959;entryX=0.500;entryY=1.000;entryDx=0;entryDy=0;exitX=-0.002;exitY=0.742;exitDx=0;exitDy=0;exitPerimeter=0;" parent="1" source="node1" target="node3" edge="1"><mxGeometry width="50" height="50" relative="1" as="geometry"><Array as="points"><mxPoint x="10" y="490"/><mxPoint x="-122" y="490"/></Array><mxPoint x="10" y="480" as="sourcePoint"/></mxGeometry></mxCell><mxCell id="edge6" value="" style="html=1;rounded=0;edgeStyle=orthogonalEdgeStyle;dashed=0;startArrow=none;endArrow=block;endSize=12;strokeColor=#595959;exitX=0.500;exitY=0.000;exitDx=0;exitDy=0;entryX=0.250;entryY=1.001;entryDx=0;entryDy=0;" parent="1" source="node1" target="node7" edge="1"><mxGeometry width="50" height="50" relative="1" as="geometry"><Array as="points"><mxPoint x="93" y="150"/><mxPoint x="178" y="150"/></Array></mxGeometry></mxCell><mxCell id="label38" value="executed_by_id:id" style="edgeLabel;resizable=0;html=1;align=left;verticalAlign=top;strokeColor=default;" parent="edge6" vertex="1" connectable="0"><mxGeometry x="103" y="148" as="geometry"/></mxCell><mxCell id="edge2" value="" style="html=1;rounded=0;edgeStyle=orthogonalEdgeStyle;dashed=0;startArrow=none;endArrow=block;endSize=12;strokeColor=#595959;exitX=0.5;exitY=0;exitDx=0;exitDy=0;entryX=0.5;entryY=1;entryDx=0;entryDy=0;" parent="1" source="node2" target="node1" edge="1"><mxGeometry width="50" height="50" relative="1" as="geometry"><Array as="points"><mxPoint x="170" y="600"/><mxPoint x="93" y="600"/></Array><mxPoint x="180.5" y="706" as="sourcePoint"/><mxPoint x="103.5" y="616" as="targetPoint"/></mxGeometry></mxCell><mxCell id="label14" value="job_id:id" style="edgeLabel;resizable=0;html=1;align=left;verticalAlign=top;strokeColor=default;" parent="edge2" vertex="1" connectable="0"><mxGeometry x="110" y="600" as="geometry"/></mxCell><mxCell id="edge3" value="" style="html=1;rounded=0;edgeStyle=orthogonalEdgeStyle;dashed=0;startArrow=none;endArrow=block;endSize=12;strokeColor=#595959;exitX=0.500;exitY=0.000;exitDx=0;exitDy=0;entryX=0.500;entryY=1.000;entryDx=0;entryDy=0;" parent="1" source="node5" target="node1" edge="1"><mxGeometry width="50" height="50" relative="1" as="geometry"><Array as="points"><mxPoint x="-32" y="640"/><mxPoint x="-32" y="600"/><mxPoint x="93" y="600"/></Array></mxGeometry></mxCell><mxCell id="label20" value="job_id:id" style="edgeLabel;resizable=0;html=1;align=left;verticalAlign=top;strokeColor=default;" parent="edge3" vertex="1" connectable="0"><mxGeometry y="600" as="geometry"/></mxCell><mxCell id="St8xuASizieTfpTsJ0Hc-3" value="" style="html=1;rounded=1;edgeStyle=orthogonalEdgeStyle;dashed=0;startArrow=none;endArrow=block;endSize=12;strokeColor=#595959;entryX=0.5;entryY=0;entryDx=0;entryDy=0;" parent="1" target="node0" edge="1"><mxGeometry width="50" height="50" relative="1" as="geometry"><Array as="points"><mxPoint x="349" y="341"/><mxPoint x="349" y="360"/></Array><mxPoint x="350" y="341" as="sourcePoint"/><mxPoint x="13" y="188" as="targetPoint"/></mxGeometry></mxCell><mxCell id="St8xuASizieTfpTsJ0Hc-4" value="executed_on_id:id" style="edgeLabel;resizable=0;html=1;align=left;verticalAlign=top;strokeColor=default;" parent="St8xuASizieTfpTsJ0Hc-3" vertex="1" connectable="0"><mxGeometry x="-122" y="470" as="geometry"/></mxCell></root></mxGraphModel></diagram></mxfile>
